{
  "source": "C:\\Users\\Peter\\Desktop\\stuff\\MIUN\\quantitative_research\\video_compression\\videos\\BVI-HD\\BVI-HD_CDVL_videos\\ORIG\\Bookcase_1920x1080_60fps.mp4",
  "output": "C:\\Users\\Peter\\Desktop\\stuff\\MIUN\\quantitative_research\\video_compression\\compressed_videos\\BVI-HD\\h264\\3\\Bookcase_1920x1080_60fps_h264.mp4",
  "codec": "h264",
  "ok": "Input #0, mov,mp4,m4a,3gp,3g2,mj2, from 'C:\\Users\\Peter\\Desktop\\stuff\\MIUN\\quantitative_research\\video_compression\\videos\\BVI-HD\\BVI-HD_CDVL_videos\\ORIG\\Bookcase_1920x1080_60fps.mp4':\n  Metadata:\n    major_brand     : isom\n    minor_version   : 512\n    compatible_brands: isomiso2avc1mp41\n    encoder         : Lavf54.28.101\n  Duration: 00:00:05.00, start: 0.000000, bitrate: 336321 kb/s\n  Stream #0:0[0x1](und): Video: h264 (High 4:4:4 Predictive) (avc1 / 0x31637661), yuv420p(progressive), 1920x1080, 336316 kb/s, 60 fps, 60 tbr, 60 tbn (default)\n    Metadata:\n      handler_name    : VideoHandler\n      vendor_id       : [0][0][0][0]\n[out#0/mp4 @ 00000275a89418c0] Codec AVOption b:a (set bitrate (in bits/s)) has not been used for any stream. The most likely reason is either wrong type (e.g. a video option with no video streams) or that it is a private option of some decoder which was not actually used for any stream.\nStream mapping:\n  Stream #0:0 -> #0:0 (h264 (native) -> h264 (libx264))\nPress [q] to stop, [?] for help\n[libx264 @ 00000275a893cb80] using cpu capabilities: MMX2 SSE2Fast SSSE3 SSE4.2 AVX FMA3 BMI2 AVX2\n[libx264 @ 00000275a893cb80] profile High, level 5.0, 4:2:0, 8-bit\n[libx264 @ 00000275a893cb80] 264 - core 165 r3222 b35605a - H.264/MPEG-4 AVC codec - Copyleft 2003-2025 - http://www.videolan.org/x264.html - options: cabac=1 ref=5 deblock=1:0:0 analyse=0x3:0x113 me=hex subme=8 psy=1 psy_rd=1.00:0.00 mixed_ref=1 me_range=16 chroma_me=1 trellis=2 8x8dct=1 cqm=0 deadzone=21,11 fast_pskip=1 chroma_qp_offset=-2 threads=18 lookahead_threads=3 sliced_threads=0 nr=0 decimate=1 interlaced=0 bluray_compat=0 constrained_intra=0 bframes=3 b_pyramid=2 b_adapt=1 b_bias=0 direct=3 weightb=1 open_gop=0 weightp=2 keyint=250 keyint_min=25 scenecut=40 intra_refresh=0 rc_lookahead=50 rc=cbr mbtree=1 bitrate=3000 ratetol=1.0 qcomp=0.60 qpmin=0 qpmax=69 qpstep=4 vbv_maxrate=3000 vbv_bufsize=3000 nal_hrd=none filler=0 ip_ratio=1.40 aq=1:1.00\nOutput #0, mp4, to 'C:\\Users\\Peter\\Desktop\\stuff\\MIUN\\quantitative_research\\video_compression\\compressed_videos\\BVI-HD\\h264\\3\\Bookcase_1920x1080_60fps_h264.mp4':\n  Metadata:\n    major_brand     : isom\n    minor_version   : 512\n    compatible_brands: isomiso2avc1mp41\n    encoder         : Lavf62.3.100\n  Stream #0:0(und): Video: h264 (avc1 / 0x31637661), yuv420p(tv, progressive), 1920x1080, q=2-31, 3000 kb/s, 60 fps, 15360 tbn (default)\n    Metadata:\n      encoder         : Lavc62.11.100 libx264\n      handler_name    : VideoHandler\n      vendor_id       : [0][0][0][0]\n    Side data:\n      cpb: bitrate max/min/avg: 3000000/0/3000000 buffer size: 3000000 vbv_delay: N/A\nframe=    0 fps=0.0 q=0.0 size=       0KiB time=N/A bitrate=N/A speed=N/A elapsed=0:00:00.51    \nframe=    0 fps=0.0 q=0.0 size=       0KiB time=N/A bitrate=N/A speed=N/A elapsed=0:00:01.07    \nframe=   31 fps= 19 q=37.0 size=       0KiB time=00:00:00.45 bitrate=   0.9kbits/s speed=0.277x elapsed=0:00:01.62    \nframe=   58 fps= 26 q=37.0 size=     256KiB time=00:00:00.93 bitrate=2247.4kbits/s speed=0.425x elapsed=0:00:02.19    \nframe=   90 fps= 33 q=36.0 size=     256KiB time=00:00:01.46 bitrate=1430.1kbits/s speed=0.535x elapsed=0:00:02.74    \nframe=  122 fps= 37 q=36.0 size=     512KiB time=00:00:02.00 bitrate=2097.3kbits/s speed=0.609x elapsed=0:00:03.28    \nframe=  151 fps= 40 q=35.0 size=     512KiB time=00:00:02.48 bitrate=1689.1kbits/s speed=0.654x elapsed=0:00:03.79    \nframe=  177 fps= 41 q=36.0 size=     512KiB time=00:00:02.90 bitrate=1446.4kbits/s speed=0.672x elapsed=0:00:04.31    \nframe=  207 fps= 43 q=36.0 size=     768KiB time=00:00:03.41 bitrate=1841.5kbits/s speed=0.704x elapsed=0:00:04.85    \nframe=  233 fps= 43 q=36.0 size=    1024KiB time=00:00:03.85 bitrate=2179.0kbits/s speed=0.714x elapsed=0:00:05.38    \nframe=  267 fps= 45 q=40.0 size=    1280KiB time=00:00:04.40 bitrate=2383.2kbits/s speed=0.745x elapsed=0:00:05.90    \n[mp4 @ 00000275a894d700] Starting second pass: moving the moov atom to the beginning of the file\n[out#0/mp4 @ 00000275a89418c0] video:1570KiB audio:0KiB subtitle:0KiB other streams:0KiB global headers:0KiB muxing overhead: 0.264701%\nframe=  300 fps= 47 q=-1.0 Lsize=    1574KiB time=00:00:04.96 bitrate=2596.1kbits/s speed=0.777x elapsed=0:00:06.39    \n[libx264 @ 00000275a893cb80] frame I:2     Avg QP:32.27  size: 44680\n[libx264 @ 00000275a893cb80] frame P:93    Avg QP:34.47  size: 12808\n[libx264 @ 00000275a893cb80] frame B:205   Avg QP:32.11  size:  1591\n[libx264 @ 00000275a893cb80] consecutive B-frames:  2.3% 11.3% 25.0% 61.3%\n[libx264 @ 00000275a893cb80] mb I  I16..4: 34.9% 61.7%  3.4%\n[libx264 @ 00000275a893cb80] mb P  I16..4:  9.6% 10.5%  0.2%  P16..4: 26.0%  2.8%  1.9%  0.0%  0.0%    skip:49.1%\n[libx264 @ 00000275a893cb80] mb B  I16..4:  0.3%  0.2%  0.0%  B16..8: 20.3%  0.2%  0.0%  direct: 0.0%  skip:79.0%  L0:29.2% L1:70.6% BI: 0.2%\n[libx264 @ 00000275a893cb80] 8x8 transform intra:52.1% inter:90.6%\n[libx264 @ 00000275a893cb80] direct mvs  spatial:95.6% temporal:4.4%\n[libx264 @ 00000275a893cb80] coded y,uvDC,uvAC intra: 21.5% 37.3% 4.9% inter: 2.5% 2.4% 0.1%\n[libx264 @ 00000275a893cb80] i16 v,h,dc,p: 57% 26%  4% 13%\n[libx264 @ 00000275a893cb80] i8 v,h,dc,ddl,ddr,vr,hd,vl,hu: 33% 19% 19%  3%  4%  5%  6%  6%  4%\n[libx264 @ 00000275a893cb80] i4 v,h,dc,ddl,ddr,vr,hd,vl,hu: 30% 16%  7%  5% 11% 10% 11%  5%  5%\n[libx264 @ 00000275a893cb80] i8c dc,h,v,p: 39% 25% 27%  9%\n[libx264 @ 00000275a893cb80] Weighted P-Frames: Y:0.0% UV:0.0%\n[libx264 @ 00000275a893cb80] ref P L0: 77.6% 17.7%  3.3%  0.7%  0.7%  0.1%\n[libx264 @ 00000275a893cb80] ref B L0: 94.8%  4.1%  1.0%  0.2%\n[libx264 @ 00000275a893cb80] ref B L1: 99.2%  0.8%\n[libx264 @ 00000275a893cb80] kb/s:2570.74\n",
  "seconds": 6.610606908798218,
  "probe_out": {}
}